# xmcd
# Track frame offsets:
# 150
# 15515
# 26197
# 41812
# 58218
# 74340
# 91460
# 104395
# 119134
# 134498
# 144331
# 155595
# 173318
# 188711
# 202328
# 217308
# 235766
# 246618
#
# Disc length: 3409 seconds
# Revision: 0
# Processed by: cddbd v1.5.2PL0 Copyright (c) Steve Scherf et al.
# Submitted via: VisiTrax 2.11.3.279 - For more info visit www.synapsa.com
#
DISCID=1b0d4f12
DTITLE=Various Artist - These Boots Were Made For Dancing... CD 2
DYEAR=1900
DGENRE=Country
TTITLE0=Achy Breaky Heart
TTITLE1=More Pretty Girls Than One
TTITLE2=Shame On Me
TTITLE3=You
TTITLE4=It's My Turn To Sing With Willie
TTITLE5=Sailor, Soldier, Christian
TTITLE6=Wooden Horses
TTITLE7=Paul and Silas
TTITLE8=Fire On The Moutain
TTITLE9=Southern Railroad
TTITLE10=Golden Slipper
TTITLE11=Take A Letter Marie
TTITLE12=Reggae Cowboy
TTITLE13=Pave Your Way Into Tomorrow
TTITLE14=Rockabilly Girl
TTITLE15=Eighteen Wheeler
TTITLE16=Down The Road/Sally Goodin'
TTITLE17=Foggy MNoutain Breakdown
EXTD=
EXTT0=
EXTT1=
EXTT2=
EXTT3=
EXTT4=
EXTT5=
EXTT6=
EXTT7=
EXTT8=
EXTT9=
EXTT10=
EXTT11=
EXTT12=
EXTT13=
EXTT14=
EXTT15=
EXTT16=
EXTT17=
PLAYORDER=
